<svg width="44" height="46" viewBox="0 0 44 46" fill="none" xmlns="http://www.w3.org/2000/svg">
<path d="M11.2387 3.56908C13.5665 3.00444 15.8568 2.04696 18.1569 1.34845C19.0021 1.09177 20.1549 1.05711 20.3867 0C19.6937 0.0598879 19.0005 0.341724 18.3284 0.521811C16.6771 0.964195 15.0338 1.46864 13.4114 2.01707C12.5393 2.31185 11.5214 2.53096 11.2387 3.56908Z" fill="white"/>
<path d="M21.8161 4.53696C21.1065 5.29402 20.4411 6.38471 20.8183 7.5011C20.9489 7.88753 21.4466 8.53045 21.843 8.092C22.1811 7.71803 22.2163 7.20027 22.2163 6.7147H22.1592L21.9425 7.07693C21.6493 7.49185 21.4248 7.2621 21.3318 6.83568C21.2294 6.36614 21.3074 5.81807 21.4909 5.38386C21.5992 5.12767 21.8414 4.81916 21.8161 4.53696Z" fill="white"/>
<path d="M14.9551 6.59372C14.3144 7.27735 13.7725 8.1842 13.9527 9.19491C14.0286 9.62042 14.5059 10.5297 15.0017 10.083C15.3952 9.72858 15.4125 9.14936 15.4125 8.65048H15.3553C15.0905 9.29152 14.5966 9.51631 14.5077 8.65048C14.4654 8.23979 14.5105 7.82191 14.6621 7.44062C14.7657 7.18002 15.0003 6.88088 14.9551 6.59372Z" fill="white"/>
<path fill-rule="evenodd" clip-rule="evenodd" d="M27.3048 8.93075C25.8407 9.59944 25.5564 6.86595 26.564 6.35587C26.8767 6.19756 27.4206 6.58163 27.6476 6.7881C28.3506 7.42726 28.1678 8.53658 27.3048 8.93075ZM26.6941 7.32152C26.2459 7.62992 26.7282 8.59888 27.2918 8.16529C27.7623 7.80322 27.1198 7.02859 26.6941 7.32152Z" fill="white"/>
<path d="M10.8386 7.31964C10.1294 8.07048 9.44822 9.16092 9.81568 10.2838C9.85748 10.4116 9.91808 10.5324 9.99378 10.6413C10.7723 11.7619 11.2384 10.1365 11.2388 9.43689H11.1817C11.0359 9.76295 10.8588 10.0516 10.5527 10.2233C10.2936 9.56374 10.2 9.0432 10.4307 8.34802C10.5398 8.01924 10.8418 7.66584 10.8386 7.31964Z" fill="white"/>
<path d="M32.2219 11.5541H32.1648C31.8079 12.4125 31.2701 12.1797 31.253 11.3121C31.2387 10.5819 31.6253 10.0173 31.8789 9.37634C30.8377 9.90088 30.2065 11.9886 31.0972 12.9255C31.9199 13.7907 32.2219 12.1381 32.2219 11.5541Z" fill="white"/>
<path d="M11.2005 10.1426C11.1975 10.1458 11.1943 10.2088 11.2192 10.1823C11.2223 10.179 11.2254 10.116 11.2005 10.1426Z" fill="white"/>
<path d="M15.5269 13.3084H15.4698C15.1738 12.5463 14.7752 11.6759 14.1547 11.1515C13.5268 10.6209 13.1373 11.5067 13.2703 12.0985C13.442 12.862 13.993 12.5597 14.4183 12.9214C14.9425 13.3673 15.1905 14.5118 15.2411 15.1837C15.8598 14.8122 15.9925 13.5026 16.0364 12.8245C16.0529 12.5688 15.9453 11.9218 16.2778 11.8364C16.5667 11.7622 16.7579 12.1753 17.011 12.2346C17.2624 12.2935 17.3462 11.9313 17.3413 11.7356C17.32 10.8909 16.4278 10.451 15.8923 11.1333C15.4307 11.7214 15.5269 12.598 15.5269 13.3084Z" fill="white"/>
<path d="M22.8453 14.2763C22.2475 13.5347 21.8382 12.7853 20.8442 12.643C20.7636 13.1022 20.7494 13.8259 21.2467 14.0427C21.4933 14.1502 21.711 13.9697 21.9333 14.1718C22.4223 14.6161 22.8394 15.3791 23.0168 16.0306C23.6631 15.5626 23.2293 14.066 23.3365 13.3689C23.4285 12.7708 23.8334 12.7107 24.1031 13.2479H24.2175C24.3565 12.6299 23.8749 11.5465 23.2254 12.3039C22.8411 12.7521 22.8497 13.7076 22.8453 14.2763Z" fill="white"/>
<path d="M40.5696 12.0985C40.4012 12.6452 40.0153 13.278 39.9825 13.8528C39.9643 14.1708 40.2137 14.4344 40.2255 14.7602C40.296 16.7207 40.3806 18.6713 40.5073 20.628C40.7487 24.357 41.1796 28.1983 41.0248 31.9402C40.9782 33.0658 40.5963 34.1512 40.5124 35.2673H40.5696C41.1393 33.8196 41.8104 32.5541 42.0317 30.9723C42.2848 29.1633 42.0641 27.2766 41.9469 25.4675C41.7481 22.3994 41.4292 19.2876 41.4272 16.2121C41.7745 16.6113 42.0938 17.0466 42.3992 17.4824H42.4564C42.1057 15.5694 41.1635 13.9539 40.6839 12.0985H40.5696Z" fill="white"/>
<path fill-rule="evenodd" clip-rule="evenodd" d="M32.9929 4.00798C33.1382 3.77283 33.28 3.54323 33.3655 3.32709H33.4798C33.6043 3.73174 33.7431 4.14131 33.8834 4.55504C34.3541 5.94343 34.8406 7.37865 34.852 8.83193H34.7948C34.5339 8.46928 34.2405 8.12707 33.9372 7.80356C33.9372 9.48004 34.0676 11.1555 34.1979 12.8307C34.3107 14.2805 34.4235 15.73 34.4518 17.1799C34.4902 17.1392 34.5379 17.0929 34.5898 17.0425C34.8101 16.8287 35.108 16.5394 35.1112 16.2725C35.1131 16.117 35.011 15.9711 34.9109 15.8281C34.8448 15.7336 34.7795 15.6404 34.7459 15.5466C34.5853 15.0989 34.7695 14.5484 34.9871 14.1554C35.3823 13.4416 36.1271 13.6974 36.2545 14.4578C36.316 14.8252 36.1921 15.1417 36.0671 15.4609C36.0019 15.6273 35.9365 15.7945 35.8969 15.9701C35.8413 16.2164 35.8392 16.5032 35.8371 16.7825C35.8359 16.9404 35.8348 17.0959 35.824 17.2404H35.7668L35.5381 16.696H35.4238C35.3233 16.9095 35.1628 17.0956 35.0029 17.281C34.817 17.4966 34.632 17.7111 34.5434 17.9663C34.4458 18.2479 34.4902 18.6125 34.5293 18.9335C34.5396 19.0182 34.5496 19.0999 34.5564 19.1762C34.6107 19.7793 34.6002 20.4471 34.561 21.0515C34.5024 21.9566 34.2089 22.7668 33.9111 23.5885C33.8023 23.8889 33.6929 24.1909 33.5942 24.4996H33.537C33.537 23.5272 33.5083 22.5573 33.4797 21.5879C33.4524 20.6631 33.425 19.7388 33.4226 18.8132C32.6439 19.3175 31.8878 19.7206 30.9641 19.7206V19.6601C31.4901 19.3969 31.9964 19.0367 32.4861 18.6884C32.5701 18.6286 32.6535 18.5693 32.7365 18.5108C32.7811 18.4794 32.8334 18.4474 32.8884 18.4138C33.0614 18.308 33.261 18.186 33.331 18.0141C33.4206 17.7939 33.3817 17.5158 33.3454 17.2567C33.3298 17.1448 33.3146 17.0365 33.3105 16.938L33.1418 14.0343C33.0702 12.9268 33.032 11.817 32.9938 10.7072C32.9557 9.59734 32.9175 8.48751 32.8458 7.38011C32.8399 7.28964 32.8349 7.19819 32.8299 7.10621C32.8093 6.73195 32.7883 6.34898 32.7078 5.98877C32.6866 5.89405 32.6489 5.79367 32.6103 5.69123C32.5414 5.50782 32.4699 5.31781 32.4866 5.14187C32.5216 4.77115 32.7616 4.38253 32.9929 4.00798ZM35.3666 14.5182C35.2633 14.8983 35.4149 15.2179 35.5953 15.5458C35.8589 15.1712 35.8084 14.6809 35.3666 14.5182Z" fill="white"/>
<path fill-rule="evenodd" clip-rule="evenodd" d="M2.49103 21.7169V21.6564C2.70873 21.5149 2.92838 21.3744 3.14866 21.2334C4.22417 20.5452 5.31447 19.8476 6.26458 18.9868C6.33087 18.9268 6.40285 18.8644 6.47754 18.7997C6.82877 18.4955 7.24005 18.1393 7.40196 17.7244C7.48473 17.5122 7.31999 17.2757 7.16451 17.0525C7.07727 16.9273 6.99295 16.8062 6.95691 16.696C6.75605 16.0821 7.07229 15.1289 7.52489 14.7135C8.02643 14.2532 8.69657 14.7539 8.7697 15.3652C8.82585 15.8347 8.68594 16.2116 8.54352 16.5953C8.45291 16.8394 8.36127 17.0862 8.31848 17.3614C8.28859 17.5535 8.2965 17.7483 8.3044 17.9426C8.31637 18.2373 8.3283 18.531 8.20853 18.8133C8.10361 18.5467 7.98177 18.3107 7.8083 18.0873C7.13821 19.5107 5.58597 20.6458 4.26345 21.3067C4.25146 21.3127 4.23941 21.3187 4.22732 21.3248C3.69972 21.5887 3.07702 21.9002 2.49103 21.7169ZM7.86776 15.5449C8.37954 15.6685 8.20441 16.462 7.97983 16.7565L7.74427 16.2726C7.67989 16.1119 7.50259 15.4566 7.86776 15.5449Z" fill="white"/>
<path d="M27.991 16.0911C27.2499 16.8774 26.608 17.8832 26.8171 19.0552C26.8929 19.4804 27.3797 20.473 27.9152 20.0471C28.3735 19.6826 28.3912 18.9914 28.3912 18.4503H28.334C27.9356 19.3415 27.4213 19.1522 27.374 18.2083C27.3358 17.4447 28.0501 16.7506 27.991 16.0911Z" fill="white"/>
<path d="M27.7432 19.1963C27.7178 19.2225 27.7782 19.2192 27.7813 19.216C27.8068 19.1898 27.7464 19.1931 27.7432 19.1963Z" fill="white"/>
<path d="M23.9888 21.5959H23.9316C23.5711 22.4687 22.9994 22.3888 22.9619 21.4145C22.9318 20.6318 23.3097 20.0424 23.5885 19.3577C22.536 19.888 21.9157 22.0109 22.7431 22.9847C23.6092 24.004 23.9887 22.2794 23.9888 21.5959Z" fill="white"/>
<path d="M36.0526 19.7207C35.2976 20.5201 34.1485 22.7461 35.5961 23.5575C36.4018 24.0092 36.5672 22.3906 36.5672 21.8984H36.51C36.1144 22.8683 35.5951 22.6171 35.5434 21.6564C35.5073 20.9871 36.1436 20.2987 36.0526 19.7207Z" fill="white"/>
<path d="M43.4854 20.5676C42.7104 21.388 41.9461 22.7076 42.5134 23.8947C42.5751 24.0238 42.6555 24.1442 42.7527 24.2463C43.638 25.1748 43.9996 23.4035 44 22.7453H43.9428C43.8911 22.8722 43.838 22.993 43.7651 23.1086C43.4485 23.6105 43.1234 23.596 43.0005 22.9873C42.905 22.5149 42.9702 21.9813 43.1318 21.5355C43.2385 21.241 43.5352 20.8842 43.4854 20.5676Z" fill="white"/>
<path d="M26.6188 24.923C27.4826 24.5684 28.9316 24.193 29.0201 23.0478C28.0552 23.327 26.8559 23.8287 26.6188 24.923Z" fill="white"/>
<path d="M11.6389 23.1082C11.4178 23.4891 10.7085 24.2889 10.7385 24.7392C10.7521 24.9426 10.9911 25.0936 11.1244 25.2104C11.5313 25.567 11.9337 25.9573 12.3822 26.2539C12.5759 25.9819 12.9986 25.2087 13.3301 25.1502C13.4935 25.1214 13.6949 25.3512 13.8116 25.4464C14.1734 25.7415 14.5664 26.1859 15.0123 26.3144C15.1909 25.9101 15.8104 25.2445 15.7952 24.8023C15.7873 24.5696 15.5072 24.3986 15.3553 24.2697C14.9212 23.9014 14.5045 23.4936 14.0403 23.1687C13.7541 23.5772 13.3786 23.9738 13.1827 24.4391C12.5992 24.119 12.1755 23.5066 11.6389 23.1082Z" fill="white"/>
<path d="M32.2791 23.8947C32.0415 24.2066 31.2024 24.9987 31.2452 25.407C31.2815 25.7534 31.7759 26.1449 31.9933 26.3749C32.1535 26.5445 32.4293 26.9673 32.6794 26.9673C33.1208 26.9673 33.3466 26.0445 33.8229 26.1349C34.3994 26.2443 34.7749 27.2001 35.3094 27.4638C35.5386 27.1261 36.2669 26.4298 36.2625 26.0119C36.2579 25.587 35.3554 24.9055 35.0807 24.6209C34.9655 24.5015 34.8082 24.2898 34.6235 24.3391C34.2954 24.4267 33.8409 25.1223 33.6513 25.407H33.5942C33.2502 24.8748 32.7779 24.2667 32.2791 23.8947Z" fill="white"/>
<path d="M8.09412 27.2822H8.03694C7.83775 26.5507 7.35187 25.7156 6.77909 25.2493C6.19328 24.7724 5.91409 25.6167 5.99088 26.1328C6.10723 26.9153 6.72466 26.552 7.08727 26.9385C7.58406 27.468 7.73712 28.397 7.86542 29.097C8.29417 28.6125 8.48262 27.8081 8.5418 27.1612C8.57221 26.8288 8.48897 26.3176 8.66741 26.0234C8.94991 25.5577 9.71674 26.8249 9.79627 25.8908C9.85991 25.1431 9.03648 24.5952 8.50509 25.1716C7.99864 25.7209 8.09412 26.5822 8.09412 27.2822Z" fill="white"/>
<path d="M8.03699 26.9798V27.2214H8.09416C8.08421 27.1196 8.07604 27.0708 8.03699 26.9798Z" fill="white"/>
<path d="M4.54922 27.3427C3.85649 28.0758 3.21184 29.0835 3.50801 30.1859C3.61521 30.5851 4.12538 31.3533 4.56129 30.8855C4.89708 30.5253 4.94916 29.9348 4.94945 29.46H4.89227C4.5056 30.3197 4.04294 30.081 3.99897 29.218C3.96307 28.5139 4.55506 27.9669 4.54922 27.3427Z" fill="white"/>
<path d="M9.4663 35.2673C9.60935 34.9971 9.70621 34.6673 9.5954 34.3599C9.49494 34.0814 9.07614 33.8292 9.41358 33.5555C9.81044 33.2336 10.4812 33.1221 10.9528 32.9671C12.04 32.6096 13.1318 32.2606 14.2118 31.8797C15.0502 31.584 15.9184 31.3399 15.9271 30.2464C14.9088 30.4379 13.881 31.1344 12.8968 31.4959C11.7208 31.9279 10.2496 32.1029 9.18042 32.7829C8.13264 33.4492 8.42829 34.8024 9.4663 35.2673Z" fill="white"/>
<path fill-rule="evenodd" clip-rule="evenodd" d="M2.49095 16.696V16.6355C1.94687 16.2078 2.01302 15.5095 2.15533 14.8813C2.45201 13.5714 3.20707 12.4413 4.09208 11.4937C4.16972 11.4105 4.27331 11.3165 4.38516 11.215C4.69071 10.9377 5.05793 10.6045 5.12649 10.2838C5.15803 10.1363 5.12927 9.95414 5.10115 9.77599C5.08243 9.65735 5.06398 9.5405 5.06382 9.4369C5.06274 8.71238 5.22574 8.08682 5.64924 7.50137C6.3287 6.56204 7.61677 6.10508 8.74372 5.70528C9.01674 5.60843 9.28031 5.51492 9.52347 5.41873C13.1013 4.00332 16.9314 3.01075 20.6726 2.21406C22.0625 1.91813 23.4401 1.6712 24.8464 1.49504C25.4668 1.41737 26.3201 1.35252 26.845 1.78807C27.4551 2.29427 27.3252 3.19882 27.0936 3.87156C26.5677 5.39937 25.3512 6.61491 24.2174 7.65696C23.6909 8.1409 23.2082 8.67948 22.7265 9.21696C22.2457 9.75345 21.7659 10.2888 21.2443 10.7677C21.6059 8.9193 22.884 7.74976 24.1686 6.57431C24.3187 6.43696 24.4688 6.29952 24.6177 6.16091C24.7059 6.07874 24.8238 5.98178 24.9555 5.87338C25.5011 5.42448 26.2854 4.77925 26.1938 4.17403C26.0941 3.5155 25.399 3.23506 24.8464 3.2085C23.6234 3.14979 22.4411 3.40024 21.2495 3.65269C21.2097 3.66112 21.1698 3.66956 21.13 3.67799C16.818 4.59028 12.4343 5.81157 8.3228 7.46629C7.85363 7.65512 7.40544 7.88553 6.95736 8.11588C6.59658 8.30135 6.23586 8.4868 5.86427 8.6505C7.14622 10.1902 8.79028 11.4721 10.4021 12.729C11.0978 13.2714 11.7874 13.8092 12.4394 14.361L14.1546 15.8342C14.2138 15.8863 14.2786 15.9517 14.3472 16.021C14.5398 16.2153 14.7629 16.4406 14.9793 16.4921C15.254 16.5574 15.6532 16.4011 16.0113 16.2609C16.1912 16.1905 16.3607 16.1241 16.4988 16.092C17.3065 15.9039 18.1335 15.9065 18.9574 15.909H18.9575C19.0528 15.9093 19.1481 15.9096 19.2432 15.9096C18.456 14.4772 18.4327 12.8483 18.4098 11.2395V11.2394C18.4044 10.8583 18.3989 10.4783 18.3834 10.1023C18.3736 9.8674 18.3165 9.59571 18.2585 9.32021C18.177 8.93284 18.0939 8.53792 18.1388 8.22705C18.191 7.86542 18.4623 7.46407 18.7033 7.10754L18.7035 7.10734C18.7977 6.96793 18.8873 6.83538 18.9573 6.71473H19.0145C19.0477 6.78979 19.0814 6.86559 19.1153 6.94207L19.1155 6.94246C19.6331 8.10797 20.2205 9.43097 20.2724 10.7073C20.1278 10.5995 20 10.4719 19.8721 10.3443C19.7443 10.2167 19.6165 10.0891 19.4719 9.98134C19.4719 11.6034 19.4737 13.198 20.1455 14.6998C20.4771 15.4409 20.9791 16.1212 21.5311 16.6937C21.6124 16.778 21.7165 16.864 21.825 16.9537C22.0614 17.1489 22.3191 17.3617 22.4097 17.6137C22.5628 18.0395 22.4164 18.6837 22.2885 19.2464C22.2336 19.4879 22.1821 19.7144 22.1591 19.9022C21.8766 19.691 21.6378 19.4243 21.3979 19.1564C21.154 18.884 20.9089 18.6103 20.6154 18.3924C19.6006 17.6388 17.8034 17.4467 16.6703 18.0269C17.1838 18.3083 17.6557 18.7938 18.0976 19.2484C18.2344 19.3892 18.3685 19.5271 18.4999 19.655C19.7956 20.9157 21.0478 22.2437 22.2002 23.6527C22.3664 23.8559 22.5266 24.0616 22.6857 24.2657L22.6857 24.2657C23.4029 25.1861 24.095 26.0743 25.1894 26.5564C25.1894 25.4277 25.1237 24.296 25.0581 23.166L25.0581 23.1659L25.0581 23.1658C25.023 22.5611 24.9879 21.957 24.963 21.354C24.93 20.5569 24.915 19.7573 24.9 18.9574V18.9573C24.8787 17.8187 24.8574 16.6796 24.7841 15.5467C24.7483 14.9931 24.7376 14.4379 24.7269 13.8826V13.8825C24.7162 13.3276 24.7055 12.7727 24.6698 12.2196C24.6585 12.0452 24.6144 11.8425 24.5693 11.6349C24.4981 11.3072 24.4243 10.9673 24.4723 10.7073C24.5376 10.3538 24.7687 9.99741 24.989 9.65763C25.1057 9.47759 25.2194 9.30222 25.3038 9.13444H25.4181C25.5697 9.62643 25.7462 10.1106 25.9225 10.594C26.386 11.8653 26.8475 13.131 26.8475 14.5183C26.5868 14.3073 26.3755 14.0268 26.1659 13.7483C26.0521 13.5973 25.9388 13.4469 25.8183 13.3084C25.8183 15.6609 25.9619 18.0082 26.1054 20.3542C26.2392 22.5426 26.373 24.7299 26.3901 26.9193C26.4879 26.9238 26.5834 26.9302 26.6776 26.9365L26.6777 26.9365C27.0217 26.9596 27.3479 26.9816 27.7051 26.902C28.2996 26.7696 29.1073 26.423 29.4124 25.8305C29.6761 25.3181 29.5736 24.4152 29.5057 23.8174C29.5016 23.7815 29.4976 23.7467 29.4939 23.7132C29.3788 22.6815 29.3637 21.5462 29.3632 20.5071C29.3626 19.2363 29.2685 17.9524 29.1749 16.6768C29.1427 16.2383 29.1106 15.8008 29.0824 15.3652C29.0048 14.1667 28.9553 12.966 28.9058 11.7653L28.9058 11.7651C28.8562 10.5647 28.8067 9.36445 28.7292 8.16655C28.684 7.46886 28.6726 6.76861 28.6611 6.06836C28.6521 5.51718 28.6431 4.96597 28.6176 4.416C28.6105 4.26186 28.5442 4.10356 28.4786 3.94665C28.3983 3.75484 28.3189 3.56511 28.3494 3.38762C28.4239 2.95419 28.7419 2.40943 29.0033 1.9616L29.0033 1.96152C29.0718 1.84423 29.1364 1.73358 29.1917 1.63333C29.3743 1.93887 29.4931 2.30425 29.6093 2.66176C29.663 2.82694 29.7162 2.99049 29.7749 3.14565C30.3202 4.58828 30.6972 5.92045 30.9641 7.44064H30.9069C30.8692 7.37595 30.8309 7.30945 30.792 7.24182C30.5289 6.78459 30.2362 6.27586 29.8778 5.92832C29.8991 8.64985 30.0746 11.3693 30.2501 14.0892L30.2501 14.0893C30.4532 17.2348 30.6562 20.381 30.6208 23.5317C30.5969 25.6585 30.0623 27.9607 27.9338 28.7027C27.4574 28.8688 26.9474 28.9533 26.4473 28.9761C26.4473 29.0636 26.4474 29.1523 26.4475 29.2421L26.4475 29.2455C26.4501 31.8404 26.4536 35.3644 24.389 37.1426C25.1889 35.1072 25.3609 33.3442 25.3609 31.1538C25.3609 30.9923 25.3699 30.8058 25.3794 30.6078C25.407 30.0315 25.4393 29.358 25.2693 28.9221C25.1912 28.7219 24.9284 28.5979 24.6985 28.4893L24.6984 28.4893C24.6037 28.4446 24.5145 28.4025 24.4461 28.3588C23.8495 27.9776 23.2836 27.5036 22.7978 26.9744C22.1952 26.318 21.6455 25.6117 21.0959 24.9054C20.6214 24.2957 20.1469 23.686 19.6383 23.1083C19.0752 22.4686 18.4641 21.8863 17.8527 21.3037C17.4936 20.9615 17.1344 20.6192 16.7847 20.2651C16.9878 20.6102 17.2144 20.9431 17.4414 21.2765L17.4415 21.2767C17.9122 21.9682 18.3844 22.662 18.6517 23.4712C19.0865 24.7872 19.1132 26.7703 18.0898 27.8086C17.5468 28.3594 16.7531 28.6207 16.0414 28.817C15.548 28.9531 15.0507 29.0811 14.5528 29.2092L14.5525 29.2093C12.7391 29.6758 10.9166 30.1447 9.2376 31.0181C9.14753 31.0649 9.05189 31.1133 8.95266 31.1634L8.95223 31.1636C8.2784 31.5041 7.4388 31.9283 7.04797 32.5454C6.59377 33.2624 6.61887 34.6353 6.73762 35.4488C7.12127 38.077 9.60684 39.1994 11.8676 39.1994C11.9443 39.1994 12.036 39.2018 12.138 39.2045C12.719 39.2198 13.6304 39.2439 13.954 38.8779C14.0807 38.7345 14.1434 38.5121 14.2022 38.3037C14.2275 38.2141 14.252 38.1271 14.2806 38.05C14.4895 37.4871 14.7269 36.9345 15.0239 36.4167C15.0599 36.354 15.1163 36.279 15.1775 36.1976C15.3279 35.9975 15.5073 35.7588 15.4839 35.5698C15.4576 35.3575 15.241 35.1447 15.0228 34.9304C14.7504 34.6629 14.4754 34.3929 14.5649 34.118C14.6637 33.8148 15.3463 33.0719 15.641 32.9894C15.7421 32.9611 15.8195 32.9971 15.8966 33.0329C15.9896 33.0761 16.082 33.1191 16.2152 33.0486C17.0783 32.5915 17.9861 31.8191 18.5966 31.0328C18.837 30.7233 18.7049 30.5029 18.5559 30.2546C18.4777 30.1241 18.3948 29.9859 18.3589 29.823C18.2671 29.4068 18.4565 28.9074 18.6532 28.5529C19.0237 27.8852 19.7908 28.1286 19.9105 28.8551C19.9733 29.2367 19.847 29.5625 19.7196 29.8915C19.6518 30.0665 19.5837 30.2423 19.5435 30.4279C19.4902 30.674 19.4878 30.9581 19.4855 31.2355V31.2356C19.4842 31.3948 19.4829 31.5519 19.4719 31.6983H19.4147C19.3923 31.6413 19.369 31.5851 19.3456 31.529C19.2862 31.3863 19.2273 31.2447 19.186 31.0933H19.0717C18.644 32.1624 17.3769 33.1945 16.3845 33.634C16.4303 33.6846 16.4906 33.7447 16.5572 33.8109L16.5572 33.811C16.791 34.0436 17.1019 34.3529 17.1325 34.6019C17.1646 34.864 16.8244 35.2538 16.568 35.5477C16.478 35.6507 16.3984 35.7419 16.3487 35.8118C15.6908 36.7359 15.177 37.6969 14.7836 38.7759C16.8916 38.3144 19.0435 37.2043 20.8441 35.9801C20.8961 35.9448 20.9529 35.907 21.0132 35.867L21.0136 35.8667L21.0139 35.8665C21.5745 35.4943 22.436 34.9223 22.4846 34.239C22.5191 33.7555 22.221 33.1466 21.959 32.6115C21.8509 32.3907 21.749 32.1824 21.6791 32.0007C21.4097 31.3007 21.2495 30.6023 21.0871 29.8948C21.0127 29.5707 20.9379 29.2446 20.852 28.9156C20.8204 28.7949 20.7427 28.6974 20.6661 28.6014C20.5791 28.4923 20.4937 28.3852 20.4792 28.2478C20.4318 27.7955 20.7048 27.0597 20.8895 26.5623C20.9144 26.495 20.9378 26.4321 20.9585 26.3749C21.8306 27.126 22.8559 28.6064 23.3026 29.702C23.0528 29.6394 22.8124 29.5403 22.5723 29.4413C22.4351 29.3848 22.298 29.3282 22.1591 29.2785C22.1725 29.958 22.4614 30.6069 22.7409 31.2347C22.8378 31.4521 22.9334 31.667 23.0161 31.8797C23.3159 32.6507 23.4299 33.4081 23.35 34.239C23.2058 35.7417 22.3169 36.6486 21.1872 37.4451C19.2343 38.8219 16.746 40.2538 14.3833 40.5907C14.3832 42.1871 14.5382 44.6703 16.7275 44.2527C17.5579 44.0943 18.2069 43.4907 18.8207 42.92L18.8598 42.8836C18.8733 42.8711 18.8867 42.8586 18.9002 42.8462C19.4763 42.3115 20.0016 41.7269 20.5269 41.1423C21.2059 40.3866 21.885 39.6309 22.6737 38.9831C24.6072 37.3952 26.8649 36.6819 29.1476 35.9607C29.7341 35.7754 30.3222 35.5896 30.9069 35.3883C30.4738 33.7613 30.1771 31.7363 30.9819 30.1859C31.4229 29.3364 32.1673 28.631 33.1367 28.8145C33.7867 28.9376 34.19 29.6517 34.4172 30.2464C34.9633 31.6758 34.8494 33.6041 34.0458 34.9044C33.7905 35.3174 33.4608 35.664 33.0796 35.9466C33.0427 35.9739 32.996 36.002 32.946 36.0321C32.7858 36.1283 32.5917 36.2449 32.5794 36.4223C32.5438 36.9354 33.353 37.5563 33.7085 37.7793C34.8382 38.488 37.2001 38.2787 37.6803 36.7192C37.797 36.3403 37.7675 35.9632 37.7377 35.5826L37.7377 35.5825C37.7263 35.4377 37.715 35.2924 37.7116 35.1464L37.5942 32.0007C37.5078 29.913 37.3948 27.826 37.2819 25.739L37.2819 25.7386C37.169 23.6522 37.0561 21.5659 36.9697 19.4787C36.9398 18.7558 36.9307 18.0269 36.9217 17.2969L36.9217 17.2961V17.2959C36.9069 16.1034 36.892 14.9082 36.7862 13.7319C36.7124 12.9112 36.706 12.0818 36.6996 11.2537V11.2528C36.6964 10.8282 36.6931 10.4039 36.6807 9.98134C36.676 9.81947 36.604 9.66362 36.5331 9.50996C36.4469 9.32332 36.3623 9.13992 36.4014 8.95296C36.5004 8.47978 36.9279 7.40332 37.3105 7.13817C37.4821 7.90429 37.7551 8.63338 38.0278 9.36136L38.0278 9.36144C38.445 10.4755 38.8612 11.5869 38.9114 12.8245H38.8543C38.6093 12.3589 38.3113 11.7938 37.9394 11.4332C38.107 12.3882 38.0861 13.4408 38.0658 14.4605V14.4607C38.0577 14.8712 38.0496 15.2763 38.054 15.6677C38.0786 17.8542 38.1464 20.0792 38.2876 22.2614C38.445 24.6939 38.5448 27.1306 38.6446 29.567L38.6446 29.5674C38.658 29.8946 38.6714 30.2218 38.685 30.5489C38.6913 30.7019 38.6979 30.8555 38.7046 31.0096V31.0097C38.7858 32.8839 38.8703 34.8356 38.4267 36.6587C38.1488 37.8008 37.5881 39.025 36.5672 39.6032C34.5168 40.7646 31.7046 39.3388 31.3643 36.9006L27.0762 38.4533C26.9104 38.5118 26.744 38.5681 26.5776 38.6244L26.5771 38.6245L26.5764 38.6248C25.7086 38.9183 24.8443 39.2107 24.1031 39.7979C22.8465 40.7935 21.6542 41.9437 20.5591 43.1314C20.4187 43.2837 20.2799 43.4403 20.1405 43.5975C19.4332 44.3956 18.7124 45.2088 17.6995 45.5494C16.0589 46.1011 14.373 44.8915 13.8167 43.2524C13.576 42.5431 13.5791 41.8204 13.5822 41.0833C13.5825 41 13.5829 40.9164 13.5829 40.8327C13.2175 40.8493 12.8555 40.8889 12.4939 40.9285C11.8324 41.0009 11.1723 41.0732 10.4954 41.0039C8.41302 40.7907 6.47433 39.4399 6.01647 37.2031C5.83139 36.2988 5.88131 35.413 5.93167 34.5193C5.95497 34.1058 5.97837 33.6906 5.97862 33.2711L5.95657 33.2944C5.45257 33.8277 4.86756 34.4468 4.14902 34.6212C2.47431 35.0278 0.975526 33.3393 0.735448 31.6983C0.408407 29.4623 1.42349 27.5682 2.54812 25.77C2.12366 25.6425 1.70868 25.5092 1.34745 25.2299C-0.89484 23.4965 0.0583811 20.1263 1.34888 18.1479C1.38296 18.0956 1.41747 18.0422 1.45249 17.988L1.45258 17.9878C1.74863 17.5295 2.08043 17.0158 2.49095 16.696ZM3.4667 13.8529C3.89122 12.6694 4.67343 11.7472 5.52122 10.8887C5.98828 11.1978 6.39585 11.6327 6.79549 12.0592C6.96167 12.2365 7.1265 12.4124 7.29365 12.5771L10.6098 15.8468C10.7831 16.0221 10.9889 16.2 11.2017 16.3841C11.7076 16.8214 12.2532 17.2932 12.4966 17.8454C10.9233 18.7722 9.48731 19.9644 8.06714 21.1436L8.06684 21.1438L8.06514 21.1453C7.76954 21.3907 7.47463 21.6355 7.1793 21.8773C7.06339 21.9722 6.94702 22.0684 6.83 22.1652C5.94251 22.899 5.01816 23.6632 3.9775 24.1093C3.63937 24.2542 3.25715 24.4052 2.89117 24.4337C0.828071 24.5938 0.484735 22.4164 0.989876 20.7491C1.34173 19.5878 2.05619 17.9129 2.91776 17.0782C3.04614 16.9538 3.22428 16.9004 3.40546 16.846C3.56658 16.7977 3.7301 16.7486 3.86315 16.6483C4.58344 16.1052 4.96354 15.2124 5.17817 14.3368C5.10126 14.4182 5.02228 14.5087 4.94071 14.6022C4.64444 14.9419 4.31358 15.3211 3.92032 15.4467C3.03503 15.7294 3.30518 14.3031 3.4667 13.8529ZM13.6401 19.1027C13.4569 19.1277 13.2744 19.2486 13.1033 19.362C13.0322 19.4091 12.9632 19.4549 12.8968 19.492C12.2792 19.8369 11.6933 20.2165 11.1244 20.6457C10.3533 21.2273 9.6054 21.8429 8.8575 22.4586C7.80506 23.3249 6.75261 24.1912 5.63558 24.9627C5.19459 25.2673 4.70614 25.5808 4.2062 25.7638C4.09503 25.8045 3.95971 25.8173 3.82341 25.8302C3.6384 25.8476 3.45159 25.8653 3.32102 25.9531C3.08203 26.1139 2.8933 26.4925 2.72959 26.8209C2.66685 26.9468 2.60779 27.0653 2.55098 27.1613C1.76454 28.4907 1.34808 29.9473 1.52189 31.5168C1.62406 32.4397 2.15711 33.3166 3.11988 33.2687C3.69317 33.2401 4.21335 32.852 4.6636 32.5101C5.10204 32.1771 5.51919 31.8136 5.9364 31.45L5.93652 31.4498C6.34407 31.0946 6.75169 30.7394 7.1793 30.4125C9.13209 28.9197 11.476 28.3072 13.7837 27.7041C13.984 27.6518 14.1839 27.5996 14.3834 27.5468C14.5952 27.4908 14.8339 27.4383 15.0866 27.3828C16.1328 27.1528 17.4175 26.8704 18.0177 26.0668C18.3665 25.5998 18.0361 24.9216 17.8037 24.4446C17.7823 24.4007 17.7617 24.3584 17.7425 24.3181C17.0442 22.8508 16.0494 21.4857 14.9551 20.3256C14.8842 20.2505 14.7946 20.1328 14.693 19.9996C14.3877 19.599 13.9747 19.0572 13.6401 19.1027ZM33.7703 33.5733C33.4596 34.19 32.6074 34.6567 31.9932 34.8439C31.7933 34.3524 31.6692 33.7934 31.5601 33.2711C31.3986 32.4972 31.188 29.9639 32.6794 30.6232C33.4771 30.9759 34.197 32.7262 33.7703 33.5733Z" fill="white"/>
<path d="M27.7622 33.0895C27.561 33.4719 27.3065 33.8128 27.1905 34.2389C27.732 33.9199 28.2117 33.5218 28.7914 33.2719C29.0082 33.1785 29.4495 33.1474 29.5902 32.9375C29.7053 32.766 29.649 32.4423 29.649 32.2426C29.2974 32.3148 28.7882 32.6227 28.4483 32.5754C28.2748 32.5512 27.644 32.1214 27.907 31.9013C28.1066 31.7343 28.4853 31.9784 28.677 32.0612C28.9271 31.5889 28.8011 30.9855 28.1625 31.1849C27.4514 31.4069 27.0142 32.6688 27.7622 33.0895Z" fill="white"/>
<path d="M36.3386 32.0007C35.5928 32.7899 34.292 35.1693 35.882 35.924C36.6626 36.2945 36.796 34.7017 36.796 34.2389H36.7388C36.3272 35.2479 35.7967 34.9006 35.7742 33.9364C35.7587 33.2738 36.4163 32.5642 36.3386 32.0007Z" fill="white"/>
<path d="M19.1461 32.6702C18.1557 33.2247 18.4612 35.9827 19.9292 35.2406C20.7717 34.8147 20.9726 33.6969 20.2129 33.0753C19.992 32.8945 19.4346 32.5087 19.1461 32.6702Z" fill="white"/>
<path d="M12.1536 36.5981H12.0964C11.8036 35.8541 11.4093 35.0331 10.7806 34.545C10.2431 34.1277 9.9048 34.9656 10.0114 35.4488C10.1793 36.2097 10.6896 35.8604 11.0942 36.2112C11.5797 36.632 11.8205 37.7235 11.8677 38.3524C12.4447 38.006 12.5649 36.8082 12.6059 36.1747C12.6214 35.9357 12.5422 35.3472 12.8071 35.2221C13.0816 35.0924 13.3111 35.5934 13.5768 35.5918C13.807 35.5905 13.8161 35.2583 13.809 35.0858C13.778 34.3375 12.9589 33.9291 12.4759 34.5526C12.0408 35.1144 12.1536 35.9253 12.1536 36.5981Z" fill="white"/>
<path d="M4.83507 35.0253C4.29431 35.6099 3.75526 36.7383 4.3524 37.4989C4.9433 38.2517 5.28315 37.0155 5.29247 36.5376H5.23529C4.62672 37.6506 4.46857 36.1516 4.68944 35.5698C4.75937 35.3856 4.86628 35.2237 4.83507 35.0253Z" fill="white"/>
<path d="M32.222 40.1068C31.5425 40.8257 30.9796 41.6959 31.0884 42.7684C31.1355 43.2331 31.6178 44.3811 32.216 43.9418C32.6679 43.6098 32.7352 42.8099 32.7366 42.2845H32.6794L32.4871 42.6478C32.1881 43.1148 31.874 43.1105 31.7463 42.5265C31.6379 42.0304 31.7137 41.4836 31.8827 41.0141C31.9842 40.7321 32.2689 40.4107 32.222 40.1068Z" fill="white"/>
<path d="M28.3912 43.4944C27.7628 42.8308 27.6732 41.758 26.8475 41.2117C26.1568 40.7546 25.9094 42.0558 26.1665 42.5262C26.4488 43.0425 26.8792 42.7532 27.2254 43.0469C27.8108 43.5435 27.9724 44.7049 28.1054 45.4301C28.6003 44.8275 28.8128 43.9145 28.8464 43.1314C28.8574 42.8752 28.7993 42.1332 29.045 41.9901C29.4003 41.783 29.6441 42.5442 29.9791 42.3948C30.2376 42.2796 30.1821 41.7752 30.1082 41.5586C29.8459 40.7901 29.0876 40.7343 28.657 41.3773C28.3068 41.9004 28.2225 42.8903 28.3912 43.4944Z" fill="white"/>
<path d="M12.0393 41.5586C11.4955 42.1464 10.8392 43.4915 11.6512 44.1807C12.2535 44.692 12.4393 43.5296 12.4395 43.1314H12.3823C12.2718 43.3763 12.1518 43.5453 11.9249 43.6758C11.7563 43.238 11.6699 42.8758 11.7828 42.4055C11.8496 42.1272 12.0843 41.8448 12.0393 41.5586Z" fill="white"/>
<path d="M23.3026 42.0425C22.5964 42.7896 22.0551 43.656 22.169 44.7647C22.215 45.2122 22.7301 46.3624 23.292 45.8869C23.7403 45.5075 23.7945 44.7777 23.8171 44.2202H23.76L23.5677 44.5835C23.249 45.0815 22.9546 45.0669 22.8168 44.4622C22.7095 43.9915 22.7626 43.4603 22.9289 43.0104C23.0367 42.7184 23.3457 42.3552 23.3026 42.0425Z" fill="white"/>
</svg>
