<svg width="46" height="44" viewBox="0 0 46 44" fill="none" xmlns="http://www.w3.org/2000/svg">
<path d="M11.7496 3.4139C14.1831 2.87381 16.5776 1.95796 18.9822 1.28982C19.8658 1.04431 21.0711 1.01115 21.3134 0C20.5889 0.0572841 19.8642 0.326867 19.1615 0.499124C17.4351 0.922274 15.7172 1.40479 14.021 1.92937C13.1093 2.21134 12.0451 2.42092 11.7496 3.4139Z" fill="black"/>
<path d="M22.8077 4.33972C22.0658 5.06387 21.3702 6.10714 21.7646 7.17499C21.9011 7.54462 22.4215 8.15959 22.8359 7.7402C23.1893 7.38249 23.2261 6.88724 23.2261 6.42278H23.1664L22.9399 6.76926C22.6334 7.16614 22.3986 6.94638 22.3014 6.5385C22.1943 6.08937 22.2758 5.56514 22.4677 5.1498C22.581 4.90475 22.8341 4.60965 22.8077 4.33972Z" fill="black"/>
<path d="M15.6349 6.30704C14.965 6.96094 14.3985 7.82836 14.5869 8.79513C14.6663 9.20214 15.1653 10.0719 15.6836 9.64462C16.095 9.3056 16.1131 8.75156 16.1131 8.27437H16.0533C15.7764 8.88754 15.2601 9.10256 15.1671 8.27437C15.1229 7.88154 15.1701 7.48182 15.3286 7.11712C15.4369 6.86784 15.6822 6.58171 15.6349 6.30704Z" fill="black"/>
<path fill-rule="evenodd" clip-rule="evenodd" d="M28.546 8.54243C27.0153 9.18204 26.7182 6.5674 27.7715 6.0795C28.0985 5.92808 28.6671 6.29545 28.9044 6.49293C29.6394 7.10431 29.4482 8.16539 28.546 8.54243ZM27.9075 7.00324C27.4389 7.29845 27.9432 8.22599 28.5324 7.81094C29.0243 7.46435 28.3526 6.72284 27.9075 7.00324Z" fill="black"/>
<path d="M11.3312 7.0014C10.5897 7.7196 9.87757 8.76263 10.2617 9.83668C10.3054 9.95894 10.3688 10.0744 10.4479 10.1786C11.2618 11.2506 11.7491 9.69578 11.7496 9.0266H11.6898C11.5374 9.33848 11.3523 9.6146 11.0323 9.77881C10.7614 9.14794 10.6635 8.65003 10.9047 7.98507C11.0188 7.67059 11.3345 7.33255 11.3312 7.0014Z" fill="black"/>
<path d="M33.6866 11.0518H33.6268C33.2537 11.8729 32.6915 11.6502 32.6737 10.8203C32.6587 10.1219 33.0628 9.58177 33.3279 8.96872C32.2394 9.47045 31.5795 11.4674 32.5108 12.3636C33.3708 13.1911 33.6866 11.6104 33.6866 11.0518Z" fill="black"/>
<path d="M11.7097 9.70169C11.7064 9.70487 11.703 9.76597 11.7301 9.74023C11.7335 9.73704 11.7369 9.67594 11.7097 9.70169Z" fill="black"/>
<path d="M16.2326 12.7298H16.1728C15.8635 12.0008 15.4468 11.1682 14.798 10.6666C14.1416 10.1591 13.7344 11.0065 13.8735 11.5725C14.053 12.3028 14.629 12.0137 15.0736 12.3596C15.6216 12.7861 15.8809 13.8809 15.9337 14.5235C16.5806 14.1682 16.7194 12.9156 16.7652 12.2669C16.7825 12.0224 16.67 11.4035 17.0176 11.3218C17.3196 11.2508 17.5195 11.646 17.7841 11.7027C18.047 11.759 18.1346 11.4125 18.1294 11.2254C18.1072 10.4174 17.1745 9.99664 16.6146 10.6492C16.132 11.2118 16.2326 12.0503 16.2326 12.7298Z" fill="black"/>
<path d="M23.8837 13.6556C23.2587 12.9462 22.8308 12.2295 21.7916 12.0933C21.7074 12.5326 21.6925 13.2248 22.2124 13.4321C22.4703 13.535 22.6978 13.3623 22.9303 13.5556C23.4415 13.9806 23.8775 14.7104 24.063 15.3336C24.7386 14.8859 24.2851 13.4545 24.3972 12.7877C24.4934 12.2156 24.9167 12.1581 25.1987 12.6719H25.3182C25.4636 12.0808 24.9601 11.0444 24.2811 11.7689C23.8793 12.1977 23.8883 13.1116 23.8837 13.6556Z" fill="black"/>
<path d="M42.4135 11.5725C42.2375 12.0954 41.834 12.7007 41.7997 13.2506C41.7807 13.5547 42.0415 13.8068 42.0538 14.1185C42.1275 15.9937 42.216 17.8596 42.3485 19.7312C42.6008 23.2981 43.0513 26.9723 42.8894 30.5515C42.8407 31.6282 42.4415 32.6664 42.3538 33.734H42.4135C43.0091 32.3492 43.7108 31.1388 43.9421 29.6257C44.2067 27.8953 43.976 26.0906 43.8534 24.3602C43.6457 21.4256 43.3122 18.4491 43.3102 15.5072C43.6733 15.8891 44.0071 16.3054 44.3263 16.7223H44.3861C44.0195 14.8925 43.0345 13.3472 42.5331 11.5725H42.4135Z" fill="black"/>
<path fill-rule="evenodd" clip-rule="evenodd" d="M34.4926 3.83376C34.6445 3.60883 34.7927 3.38921 34.8821 3.18246H35.0016C35.1317 3.56952 35.2769 3.96128 35.4235 4.35702C35.9156 5.68505 36.4243 7.05787 36.4362 8.44797H36.3764C36.1036 8.10108 35.7969 7.77375 35.4798 7.4643C35.4798 9.0679 35.6161 10.6705 35.7524 12.2729C35.8703 13.6596 35.9882 15.0461 36.0178 16.433C36.058 16.394 36.1078 16.3498 36.1621 16.3015C36.3923 16.097 36.7038 15.8204 36.7072 15.5651C36.7092 15.4163 36.6024 15.2767 36.4978 15.14C36.4286 15.0496 36.3604 14.9604 36.3253 14.8707C36.1574 14.4424 36.3499 13.9159 36.5774 13.5399C36.9906 12.8572 37.7693 13.1019 37.9024 13.8292C37.9667 14.1807 37.8372 14.4834 37.7065 14.7887C37.6384 14.9479 37.57 15.1078 37.5286 15.2758C37.4704 15.5114 37.4682 15.7857 37.4661 16.0529C37.4648 16.2039 37.4636 16.3526 37.4524 16.4909H37.3926L37.1535 15.9701H37.0339C36.9289 16.1743 36.7611 16.3523 36.594 16.5297C36.3996 16.7359 36.2062 16.9411 36.1136 17.1852C36.0115 17.4545 36.0579 17.8033 36.0988 18.1103C36.1096 18.1914 36.12 18.2695 36.1272 18.3425C36.1839 18.9193 36.1729 19.5581 36.132 20.1362C36.0707 21.002 35.7638 21.7769 35.4525 22.563C35.3387 22.8503 35.2244 23.1391 35.1212 23.4344H35.0614C35.0614 22.5044 35.0314 21.5766 35.0015 20.6494C34.9729 19.7648 34.9444 18.8806 34.9419 17.9953C34.1277 18.4777 33.3372 18.8633 32.3716 18.8633V18.8054C32.9214 18.5536 33.4508 18.2091 33.9628 17.8759C34.0505 17.8187 34.1378 17.7619 34.2246 17.706C34.2712 17.676 34.3259 17.6454 34.3834 17.6132C34.5642 17.5121 34.7729 17.3953 34.846 17.2309C34.9398 17.0203 34.899 16.7542 34.8611 16.5065C34.8448 16.3995 34.8289 16.2958 34.8246 16.2016L34.6483 13.4242C34.5734 12.3648 34.5335 11.3032 34.4936 10.2417C34.4536 9.1801 34.4137 8.11852 34.3388 7.05927C34.3327 6.97274 34.3274 6.88526 34.3221 6.79727C34.3007 6.43929 34.2787 6.07297 34.1945 5.72842C34.1724 5.63782 34.1329 5.54181 34.0926 5.44382C34.0205 5.26839 33.9459 5.08664 33.9632 4.91835C33.9998 4.56374 34.2508 4.19202 34.4926 3.83376ZM36.9741 13.887C36.8662 14.2509 37.0247 14.5568 37.2132 14.8707C37.4889 14.5121 37.436 14.0428 36.9741 13.887Z" fill="black"/>
<path fill-rule="evenodd" clip-rule="evenodd" d="M2.60416 20.7727V20.7149C2.83175 20.5795 3.06139 20.4451 3.29168 20.3103C4.41608 19.652 5.55593 18.9846 6.54923 18.1613C6.61853 18.1039 6.69379 18.0442 6.77188 17.9824C7.13907 17.6914 7.56905 17.3506 7.73831 16.9538C7.82485 16.7508 7.65262 16.5246 7.49007 16.3111C7.39887 16.1913 7.31072 16.0755 7.27303 15.9701C7.06305 15.3829 7.39366 14.4712 7.86683 14.0738C8.39116 13.6336 9.09177 14.1125 9.16822 14.6971C9.22693 15.1462 9.08066 15.5068 8.93176 15.8738C8.83703 16.1073 8.74123 16.3434 8.69649 16.6066C8.66524 16.7903 8.67352 16.9766 8.68177 17.1625C8.69429 17.4444 8.70676 17.7253 8.58154 17.9953C8.47186 17.7404 8.34448 17.5146 8.16313 17.301C7.46258 18.6624 5.83978 19.7481 4.45715 20.3804C4.44461 20.3861 4.43201 20.3918 4.41937 20.3976C3.86779 20.6501 3.21678 20.948 2.60416 20.7727ZM8.22529 14.869C8.76033 14.9873 8.57724 15.7463 8.34245 16.028L8.09618 15.5651C8.02887 15.4114 7.84351 14.7846 8.22529 14.869Z" fill="black"/>
<path d="M29.2633 15.3915C28.4885 16.1436 27.8175 17.1057 28.036 18.2268C28.1153 18.6335 28.6243 19.5828 29.184 19.1755C29.6632 18.8268 29.6817 18.1656 29.6817 17.6481H29.6219C29.2054 18.5006 28.6677 18.3195 28.6183 17.4167C28.5783 16.6863 29.325 16.0223 29.2633 15.3915Z" fill="black"/>
<path d="M29.0043 18.3618C28.9777 18.3881 29.0408 18.3848 29.0441 18.3816C29.0707 18.3552 29.0076 18.3585 29.0043 18.3618Z" fill="black"/>
<path d="M25.0792 20.657H25.0194C24.6424 21.4918 24.0448 21.4154 24.0056 20.4834C23.9742 19.7348 24.3692 19.1709 24.6607 18.5161C23.5604 19.0233 22.9118 21.0539 23.7769 21.9853C24.6823 22.9603 25.0791 21.3108 25.0792 20.657Z" fill="black"/>
<path d="M37.6914 18.8632C36.9021 19.6279 35.7008 21.7571 37.2141 22.5333C38.0565 22.9653 38.2294 21.417 38.2294 20.9463H38.1696C37.756 21.874 37.2131 21.6337 37.159 20.7148C37.1214 20.0746 37.7865 19.4161 37.6914 18.8632Z" fill="black"/>
<path d="M45.462 19.6733C44.6518 20.4581 43.8527 21.7203 44.4458 22.8557C44.5104 22.9793 44.5944 23.0944 44.696 23.192C45.6215 24.0802 45.9996 22.3859 46 21.7563H45.9402C45.8861 21.8777 45.8307 21.9933 45.7545 22.1038C45.4234 22.5839 45.0836 22.5701 44.955 21.9878C44.8553 21.5359 44.9234 21.0256 45.0923 20.5991C45.2039 20.3175 45.5141 19.9762 45.462 19.6733Z" fill="black"/>
<path d="M27.8287 23.8394C28.7319 23.5002 30.2467 23.1411 30.3392 22.0457C29.3304 22.3128 28.0766 22.7927 27.8287 23.8394Z" fill="black"/>
<path d="M12.168 22.1035C11.9368 22.4678 11.1953 23.2329 11.2267 23.6636C11.2409 23.8581 11.4908 24.0026 11.63 24.1143C12.0555 24.4554 12.4761 24.8288 12.9451 25.1124C13.1476 24.8523 13.5895 24.1127 13.936 24.0567C14.1068 24.0292 14.3175 24.249 14.4394 24.34C14.8177 24.6223 15.2285 25.0474 15.6947 25.1703C15.8814 24.7836 16.529 24.1469 16.5132 23.7239C16.5049 23.5014 16.2121 23.3378 16.0533 23.2145C15.5995 22.8622 15.1639 22.4721 14.6785 22.1614C14.3793 22.5521 13.9867 22.9315 13.7819 23.3765C13.172 23.0703 12.7289 22.4846 12.168 22.1035Z" fill="black"/>
<path d="M33.7464 22.8557C33.4979 23.1541 32.6207 23.9118 32.6655 24.3023C32.7034 24.6337 33.2203 25.0081 33.4475 25.2281C33.615 25.3904 33.9034 25.7948 34.1648 25.7948C34.6263 25.7948 34.8624 24.9121 35.3603 24.9986C35.963 25.1032 36.3556 26.0174 36.9144 26.2696C37.154 25.9467 37.9154 25.2807 37.9107 24.8809C37.906 24.4745 36.9625 23.8226 36.6753 23.5504C36.5548 23.4362 36.3904 23.2336 36.1973 23.2808C35.8543 23.3646 35.3791 24.03 35.1809 24.3023H35.1212C34.7616 23.7933 34.2678 23.2116 33.7464 22.8557Z" fill="black"/>
<path d="M8.46205 26.0961H8.40227C8.19402 25.3964 7.68606 24.5976 7.08725 24.1516C6.4748 23.6954 6.18293 24.503 6.26321 24.9967C6.38485 25.7452 7.03034 25.3976 7.40943 25.7673C7.9288 26.2738 8.08882 27.1625 8.22295 27.832C8.6712 27.3686 8.86821 26.5991 8.93007 25.9804C8.96187 25.6624 8.87485 25.1734 9.0614 24.892C9.35674 24.4466 10.1584 25.6587 10.2416 24.7652C10.3081 24.05 9.44724 23.5259 8.8917 24.0772C8.36222 24.6027 8.46205 25.4266 8.46205 26.0961Z" fill="black"/>
<path d="M8.40222 25.8068V26.0382H8.462C8.45159 25.9407 8.44305 25.8939 8.40222 25.8068Z" fill="black"/>
<path d="M4.75604 26.1539C4.03182 26.8551 3.35787 27.819 3.66749 28.8735C3.77957 29.2554 4.31293 29.9902 4.76865 29.5427C5.1197 29.1981 5.17415 28.6333 5.17445 28.1791H5.11468C4.71043 29.0015 4.22674 28.7732 4.18077 27.9477C4.14324 27.2742 4.76213 26.751 4.75604 26.1539Z" fill="black"/>
<path d="M9.8966 33.7339C10.0462 33.4755 10.1474 33.16 10.0316 32.866C9.92655 32.5996 9.48871 32.3584 9.84149 32.0965C10.2564 31.7887 10.9577 31.682 11.4507 31.5337C12.5873 31.1918 13.7287 30.858 14.8578 30.4936C15.7343 30.2108 16.642 29.9773 16.6511 28.9313C15.5865 29.1145 14.512 29.7808 13.483 30.1265C12.2535 30.5397 10.7155 30.7071 9.59774 31.3575C8.50232 31.9949 8.81141 33.2893 9.8966 33.7339Z" fill="black"/>
<path fill-rule="evenodd" clip-rule="evenodd" d="M2.60417 15.9701V15.9122C2.03537 15.5031 2.10452 14.8352 2.2533 14.2342C2.56347 12.9813 3.35284 11.9003 4.27808 10.9939C4.35926 10.9144 4.46755 10.8245 4.58449 10.7274C4.90393 10.4621 5.28784 10.1434 5.35951 9.83664C5.39248 9.6956 5.36242 9.52132 5.33302 9.35091C5.31345 9.23743 5.29417 9.12566 5.294 9.02657C5.29286 8.33354 5.46328 7.73519 5.90602 7.17519C6.61637 6.2767 7.96299 5.83961 9.14116 5.45719C9.42659 5.36455 9.70215 5.27511 9.95636 5.18309C13.6968 3.82922 17.701 2.87981 21.6123 2.11776C23.0654 1.8347 24.5056 1.5985 25.9758 1.43C26.6244 1.35571 27.5165 1.29368 28.0653 1.71029C28.7031 2.19449 28.5672 3.05971 28.3252 3.7032C27.7754 5.16458 26.5035 6.32727 25.3182 7.32401C24.7678 7.78691 24.2631 8.30208 23.7595 8.81619C23.2569 9.32935 22.7552 9.84147 22.21 10.2995C22.588 8.53147 23.9242 7.41278 25.2671 6.28844C25.424 6.15705 25.5811 6.02559 25.7367 5.89301C25.8289 5.81441 25.9521 5.72167 26.0899 5.61798C26.6603 5.18859 27.4802 4.57143 27.3844 3.99251C27.2802 3.36262 26.5535 3.09437 25.9758 3.06897C24.6972 3.01281 23.4612 3.25237 22.2154 3.49384C22.1737 3.50191 22.1321 3.50998 22.0905 3.51804C17.5825 4.39067 12.9994 5.55885 8.70111 7.14163C8.21061 7.32225 7.74205 7.54264 7.27361 7.76298C6.89643 7.94039 6.51931 8.11777 6.13083 8.27435C7.47104 9.74708 9.18984 10.9733 10.8749 12.1755C11.6022 12.6944 12.3232 13.2088 13.0048 13.7366L14.798 15.1457C14.8599 15.1956 14.9276 15.2581 14.9993 15.3244C15.2007 15.5103 15.434 15.7257 15.6602 15.775C15.9474 15.8375 16.3647 15.688 16.7391 15.5539C16.9272 15.4865 17.1044 15.423 17.2488 15.3923C18.0932 15.2124 18.9578 15.2149 19.8191 15.2173H19.8193C19.9189 15.2176 20.0184 15.2179 20.1179 15.2179C19.2949 13.8477 19.2706 12.2897 19.2466 10.7508V10.7507C19.2409 10.3861 19.2352 10.0227 19.219 9.66306C19.2088 9.43835 19.149 9.17847 19.0884 8.91495C19.0032 8.54442 18.9164 8.16667 18.9633 7.86931C19.0179 7.52341 19.3015 7.13951 19.5535 6.79848L19.5536 6.79829C19.6521 6.66494 19.7458 6.53815 19.819 6.42274H19.8788C19.9135 6.49455 19.9487 6.56705 19.9842 6.64021L19.9844 6.64058C20.5255 7.75541 21.1397 9.02089 21.1938 10.2417C21.0427 10.1386 20.9091 10.0166 20.7754 9.89451C20.6418 9.77246 20.5082 9.65041 20.357 9.54733C20.357 11.0989 20.3589 12.6241 21.0612 14.0606C21.4078 14.7695 21.9327 15.4202 22.5098 15.9678C22.5948 16.0485 22.7036 16.1307 22.8171 16.2165C23.0642 16.4032 23.3336 16.6068 23.4283 16.8479C23.5884 17.2551 23.4353 17.8713 23.3016 18.4095C23.2442 18.6405 23.1903 18.8572 23.1664 19.0368C22.8709 18.8348 22.6213 18.5798 22.3706 18.3235C22.1155 18.063 21.8593 17.8012 21.5525 17.5927C20.4916 16.8719 18.6126 16.6881 17.4281 17.2431C17.9649 17.5123 18.4582 17.9766 18.9202 18.4115C19.0633 18.5461 19.2034 18.678 19.3409 18.8004C20.6954 20.0063 22.0046 21.2766 23.2093 22.6243C23.383 22.8186 23.5506 23.0154 23.7168 23.2106L23.7169 23.2107C24.4667 24.091 25.1902 24.9406 26.3344 25.4017C26.3344 24.3221 26.2657 23.2397 26.1971 22.1588L26.1971 22.1587L26.1971 22.1585C26.1604 21.5802 26.1237 21.0023 26.0976 20.4255C26.0632 19.6631 26.0475 18.8983 26.0319 18.1332V18.1331C26.0096 17.0439 25.9873 15.9543 25.9107 14.8707C25.8732 14.3412 25.862 13.8101 25.8509 13.279V13.2789C25.8397 12.7481 25.8285 12.2173 25.7911 11.6882C25.7793 11.5215 25.7333 11.3276 25.6861 11.129C25.6117 10.8156 25.5345 10.4905 25.5847 10.2417C25.653 9.90363 25.8945 9.56271 26.1248 9.2377C26.2469 9.06549 26.3657 8.89774 26.4539 8.73725H26.5735C26.732 9.20785 26.9165 9.67102 27.1008 10.1334C27.5854 11.3494 28.0678 12.5601 28.0678 13.887C27.7953 13.6852 27.5744 13.4169 27.3552 13.1505C27.2363 13.0061 27.1179 12.8622 26.9919 12.7298C26.9919 14.9799 27.142 17.2252 27.292 19.4692C27.4319 21.5624 27.5717 23.6546 27.5896 25.7489C27.6919 25.7531 27.7917 25.7593 27.8902 25.7653L27.8904 25.7653C28.2499 25.7874 28.591 25.8084 28.9644 25.7323C29.586 25.6057 30.4304 25.2741 30.7493 24.7074C31.025 24.2173 30.9178 23.3537 30.8468 22.7818C30.8426 22.7475 30.8384 22.7142 30.8345 22.6822C30.7142 21.6953 30.6984 20.6094 30.6979 19.6154C30.6973 18.3999 30.5988 17.1719 30.501 15.9517C30.4674 15.5323 30.4338 15.1138 30.4043 14.6971C30.3232 13.5507 30.2715 12.4022 30.2197 11.2537L30.2197 11.2535C30.1679 10.1054 30.1161 8.95727 30.0351 7.81145C29.9878 7.14409 29.9759 6.47429 29.9639 5.80448C29.9545 5.27726 29.9451 4.75002 29.9184 4.22396C29.911 4.07653 29.8417 3.92511 29.7731 3.77502C29.6891 3.59155 29.6061 3.41007 29.638 3.2403C29.7159 2.82571 30.0483 2.30464 30.3216 1.87627L30.3216 1.8762C30.3932 1.76401 30.4607 1.65817 30.5186 1.56228C30.7094 1.85454 30.8337 2.20403 30.9552 2.546C31.0113 2.70399 31.0669 2.86043 31.1283 3.00885C31.6984 4.38876 32.0925 5.66301 32.3716 7.1171H32.3118C32.2723 7.05522 32.2323 6.99161 32.1916 6.92692C31.9166 6.48957 31.6106 6.00296 31.2359 5.67053C31.2581 8.27374 31.4416 10.8749 31.6251 13.4766L31.6251 13.4767C31.8374 16.4855 32.0497 19.4948 32.0127 22.5086C31.9877 24.5429 31.4288 26.745 29.2035 27.4547C28.7054 27.6136 28.1723 27.6945 27.6494 27.7162C27.6494 27.7999 27.6495 27.8847 27.6496 27.9706L27.6496 27.9739C27.6523 30.456 27.656 33.8268 25.4976 35.5277C26.3338 33.5808 26.5137 31.8944 26.5137 29.7993C26.5137 29.6448 26.5231 29.4664 26.533 29.277C26.5619 28.7257 26.5956 28.0815 26.4179 27.6646C26.3362 27.4731 26.0615 27.3545 25.8211 27.2506L25.8211 27.2506C25.722 27.2079 25.6288 27.1676 25.5573 27.1258C24.9336 26.7612 24.342 26.3077 23.8341 25.8016C23.204 25.1737 22.6294 24.4982 22.0548 23.8226C21.5588 23.2393 21.0627 22.6561 20.531 22.1035C19.9422 21.4917 19.3033 20.9347 18.6642 20.3774C18.2888 20.0501 17.9132 19.7227 17.5476 19.384C17.76 19.7141 17.9969 20.0325 18.2342 20.3514L18.2342 20.3515C18.7264 21.013 19.2201 21.6767 19.4996 22.4507C19.9541 23.7095 19.982 25.6064 18.912 26.5995C18.3444 27.1263 17.5146 27.3763 16.7706 27.5641C16.2547 27.6943 15.7349 27.8166 15.2143 27.9392L15.2139 27.9393C13.3181 28.3855 11.4128 28.834 9.65749 29.6694C9.56332 29.7142 9.46334 29.7605 9.3596 29.8084L9.35915 29.8086C8.65469 30.1343 7.77693 30.5401 7.36833 31.1303C6.89349 31.8162 6.91973 33.1294 7.04388 33.9075C7.44496 36.4214 10.0435 37.495 12.4071 37.495C12.4872 37.495 12.5831 37.4973 12.6897 37.4999C13.2971 37.5146 14.25 37.5376 14.5882 37.1875C14.7207 37.0504 14.7863 36.8377 14.8478 36.6383C14.8742 36.5526 14.8998 36.4693 14.9297 36.3956C15.1481 35.8571 15.3963 35.3286 15.7068 34.8333C15.7445 34.7734 15.8034 34.7016 15.8674 34.6237C16.0246 34.4323 16.2121 34.204 16.1877 34.0233C16.1602 33.8201 15.9338 33.6167 15.7056 33.4117C15.4208 33.1558 15.1334 32.8975 15.227 32.6345C15.3302 32.3445 16.0438 31.634 16.3519 31.5551C16.4577 31.528 16.5386 31.5624 16.6192 31.5966C16.7164 31.638 16.813 31.6791 16.9522 31.6117C17.8546 31.1744 18.8036 30.4356 19.4419 29.6835C19.6932 29.3875 19.5551 29.1767 19.3994 28.9391C19.3176 28.8143 19.231 28.6821 19.1934 28.5263C19.0974 28.1282 19.2954 27.6505 19.5011 27.3114C19.8884 26.6727 20.6904 26.9056 20.8155 27.6005C20.8811 27.9655 20.7492 28.2772 20.616 28.5918C20.5451 28.7592 20.4739 28.9274 20.4318 29.1049C20.3761 29.3403 20.3736 29.6121 20.3712 29.8774V29.8775C20.3698 30.0298 20.3684 30.1801 20.357 30.32H20.2972C20.2738 30.2655 20.2494 30.2118 20.225 30.1582C20.1629 30.0217 20.1012 29.8862 20.0581 29.7414H19.9386C19.4914 30.764 18.1668 31.7513 17.1292 32.1716C17.1771 32.22 17.2401 32.2775 17.3098 32.3408L17.3098 32.3409C17.5542 32.5634 17.8793 32.8593 17.9112 33.0974C17.9448 33.3481 17.5892 33.721 17.321 34.0021C17.227 34.1006 17.1438 34.1879 17.0918 34.2547C16.404 35.1387 15.8669 36.0579 15.4556 37.09C17.6594 36.6485 19.9091 35.5866 21.7916 34.4157C21.8459 34.3819 21.9053 34.3458 21.9683 34.3075L21.9688 34.3072L21.9691 34.307C22.5551 33.951 23.4558 33.4039 23.5067 32.7503C23.5427 32.2878 23.2311 31.7055 22.9572 31.1936C22.8442 30.9824 22.7376 30.7832 22.6645 30.6094C22.3829 29.9398 22.2153 29.2717 22.0456 28.595C21.9679 28.285 21.8896 27.9731 21.7998 27.6584C21.7668 27.5429 21.6855 27.4497 21.6055 27.3579C21.5145 27.2535 21.4252 27.151 21.4101 27.0196C21.3605 26.5869 21.646 25.8832 21.839 25.4074C21.8651 25.343 21.8895 25.2829 21.9111 25.2281C22.8229 25.9466 23.8948 27.3626 24.3619 28.4106C24.1006 28.3507 23.8494 28.2559 23.5983 28.1612C23.4549 28.1071 23.3115 28.0531 23.1664 28.0055C23.1803 28.6554 23.4824 29.2761 23.7746 29.8766C23.8758 30.0846 23.9759 30.2901 24.0623 30.4936C24.3757 31.231 24.4949 31.9556 24.4114 32.7503C24.2606 34.1876 23.3313 35.0552 22.1502 35.817C20.1086 37.1339 17.5072 38.5036 15.0371 38.8259C15.037 40.3529 15.199 42.7281 17.4879 42.3286C18.356 42.1771 19.0345 41.5998 19.6762 41.0539L19.7171 41.0191C19.7312 41.0071 19.7452 40.9952 19.7593 40.9833C20.3616 40.4718 20.9107 39.9126 21.4599 39.3535C22.1698 38.6306 22.8797 37.9078 23.7043 37.2882C25.7257 35.7693 28.086 35.087 30.4725 34.3972C31.0856 34.2199 31.7005 34.0422 32.3118 33.8497C31.8589 32.2934 31.5488 30.3564 32.3902 28.8735C32.8512 28.0609 33.6295 27.3861 34.643 27.5617C35.3225 27.6794 35.7441 28.3625 35.9817 28.9313C36.5526 30.2986 36.4335 32.1431 35.5933 33.3868C35.3264 33.7818 34.9818 34.1134 34.5832 34.3837C34.5446 34.4098 34.4958 34.4367 34.4435 34.4654C34.276 34.5575 34.0732 34.669 34.0603 34.8387C34.023 35.3295 34.8691 35.9234 35.2407 36.1367C36.4217 36.8145 38.891 36.6143 39.3931 35.1226C39.515 34.7603 39.4842 34.3996 39.453 34.0355L39.453 34.0354C39.4412 33.8969 39.4293 33.7579 39.4258 33.6182L39.303 30.6094C39.2127 28.6124 39.0946 26.6162 38.9765 24.6199L38.9765 24.6195C38.8585 22.6238 38.7405 20.6282 38.6501 18.6318C38.6189 17.9403 38.6094 17.2431 38.5999 16.5448L38.5999 16.544V16.5439C38.5844 15.4032 38.5689 14.26 38.4583 13.1348C38.3812 12.3498 38.3745 11.5565 38.3678 10.7644V10.7635C38.3644 10.3574 38.361 9.95155 38.348 9.54733C38.3431 9.3925 38.2679 9.24342 38.1937 9.09645C38.1036 8.91792 38.0151 8.7425 38.056 8.56366C38.1595 8.11106 38.6064 7.0814 39.0065 6.82778C39.1858 7.56059 39.4713 8.25798 39.7563 8.95431L39.7563 8.95439C40.1925 10.02 40.6276 11.0831 40.6801 12.2669H40.6204C40.3642 11.8216 40.0527 11.281 39.664 10.936C39.8392 11.8496 39.8173 12.8564 39.7961 13.8317V13.8319C39.7876 14.2246 39.7792 14.6121 39.7838 14.9864C39.8095 17.0779 39.8803 19.2062 40.0279 21.2935C40.1925 23.6202 40.2969 25.951 40.4012 28.2814L40.4012 28.2819C40.4152 28.5948 40.4292 28.9077 40.4434 29.2206C40.45 29.367 40.4569 29.5139 40.4639 29.6613V29.6614C40.5488 31.4542 40.6371 33.321 40.1734 35.0648C39.8828 36.1572 39.2967 37.3282 38.2294 37.8813C36.0858 38.9922 33.1457 37.6284 32.79 35.2962L28.3069 36.7814C28.1336 36.8373 27.9596 36.8912 27.7857 36.945L27.7851 36.9452L27.7845 36.9454C26.8772 37.2262 25.9736 37.5059 25.1987 38.0676C23.885 39.0199 22.6385 40.12 21.4936 41.2561C21.3468 41.4018 21.2017 41.5516 21.056 41.702C20.3165 42.4653 19.5629 43.2432 18.504 43.5689C16.7888 44.0967 15.0263 42.9397 14.4448 41.3718C14.1931 40.6933 14.1963 40.0021 14.1996 39.2971C14.1999 39.2173 14.2003 39.1374 14.2003 39.0573C13.8183 39.0732 13.4398 39.1111 13.0618 39.1489C12.3702 39.2182 11.6801 39.2874 10.9725 39.2211C8.79543 39.0172 6.76862 37.7251 6.28995 35.5855C6.09646 34.7206 6.14864 33.8733 6.20129 33.0185C6.22565 32.6229 6.25011 32.2257 6.25038 31.8245L6.22732 31.8468C5.70042 32.3569 5.08881 32.949 4.33762 33.1159C2.58678 33.5049 1.01987 31.8897 0.768878 30.32C0.426971 28.1813 1.4882 26.3695 2.66395 24.6495C2.22019 24.5276 1.78635 24.4 1.4087 24.133C-0.935515 22.4749 0.0610348 19.2512 1.41019 17.3588C1.44582 17.3088 1.48191 17.2577 1.51851 17.2059L1.51861 17.2057C1.82811 16.7673 2.17499 16.2759 2.60417 15.9701ZM3.62427 13.2505C4.06809 12.1185 4.88586 11.2365 5.77219 10.4153C6.26047 10.7109 6.68657 11.1269 7.10437 11.5348C7.27811 11.7045 7.45043 11.8727 7.62518 12.0303L11.0921 15.1578C11.2732 15.3254 11.4884 15.4956 11.7109 15.6717C12.2397 16.09 12.8102 16.5413 13.0646 17.0695C11.4198 17.9559 9.91855 19.0964 8.43382 20.2243L8.43352 20.2245L8.43174 20.2259C8.1227 20.4606 7.81438 20.6948 7.50563 20.9261C7.38445 21.0169 7.26279 21.1089 7.14046 21.2014C6.21262 21.9033 5.24625 22.6344 4.15829 23.061C3.80479 23.1996 3.4052 23.3441 3.02259 23.3713C0.865711 23.5245 0.506769 21.4417 1.03487 19.8469C1.40272 18.7361 2.14965 17.1341 3.05039 16.3357C3.1846 16.2167 3.37084 16.1656 3.56025 16.1136C3.72869 16.0673 3.89965 16.0204 4.03875 15.9244C4.79178 15.4049 5.18915 14.551 5.41355 13.7134C5.33314 13.7913 5.25057 13.8779 5.16529 13.9673C4.85555 14.2922 4.50965 14.655 4.09852 14.7751C3.17298 15.0455 3.45541 13.6812 3.62427 13.2505ZM14.2601 18.2722C14.0685 18.296 13.8778 18.4117 13.6989 18.5202C13.6246 18.5652 13.5524 18.609 13.483 18.6444C12.8373 18.9744 12.2248 19.3375 11.63 19.748C10.8239 20.3043 10.042 20.8932 9.26011 21.4821C8.15984 22.3107 7.05955 23.1394 5.89174 23.8774C5.4307 24.1687 4.92005 24.4686 4.39739 24.6436C4.28117 24.6826 4.13969 24.6948 3.99721 24.7071C3.80378 24.7238 3.60848 24.7406 3.47197 24.8247C3.22212 24.9785 3.02481 25.3407 2.85367 25.6548C2.78808 25.7752 2.72633 25.8885 2.66694 25.9803C1.84475 27.2519 1.40936 28.6452 1.59107 30.1464C1.69788 31.0292 2.25516 31.868 3.26169 31.8222C3.86104 31.7948 4.40486 31.4237 4.87558 31.0966C5.33395 30.7781 5.77006 30.4303 6.20624 30.0825L6.20636 30.0824C6.63244 29.7427 7.05859 29.4029 7.50563 29.0902C9.54718 27.6622 11.9976 27.0764 14.4103 26.4996C14.6196 26.4495 14.8287 26.3995 15.0371 26.3491C15.2586 26.2955 15.5082 26.2453 15.7723 26.1922C16.8661 25.9722 18.2092 25.7021 18.8367 24.9334C19.2014 24.4868 18.8559 23.8381 18.6129 23.3818C18.5905 23.3397 18.569 23.2993 18.549 23.2608C17.8189 21.8573 16.7789 20.5515 15.6349 19.4418C15.5608 19.37 15.467 19.2575 15.3608 19.13C15.0417 18.7469 14.6099 18.2286 14.2601 18.2722ZM35.3053 32.1135C34.9804 32.7035 34.0896 33.1498 33.4475 33.3289C33.2385 32.8588 33.1087 32.3241 32.9946 31.8245C32.8258 31.0843 32.6056 28.6611 34.1648 29.2917C34.9987 29.629 35.7514 31.3033 35.3053 32.1135Z" fill="black"/>
<path d="M29.0243 31.6509C28.8139 32.0166 28.5478 32.3427 28.4265 32.7503C28.9926 32.4452 29.4941 32.0644 30.1002 31.8253C30.3268 31.7359 30.7882 31.7062 30.9353 31.5055C31.0556 31.3414 30.9968 31.0318 30.9968 30.8408C30.6292 30.9098 30.0969 31.2043 29.7415 31.1591C29.5601 31.136 28.9006 30.7248 29.1756 30.5143C29.3843 30.3545 29.7802 30.588 29.9806 30.6672C30.242 30.2155 30.1103 29.6383 29.4427 29.8291C28.6993 30.0414 28.2422 31.2484 29.0243 31.6509Z" fill="black"/>
<path d="M37.9903 30.6093C37.2106 31.3642 35.8507 33.6402 37.513 34.3621C38.329 34.7164 38.4685 33.193 38.4685 32.7503H38.4087C37.9784 33.7154 37.4238 33.3832 37.4003 32.461C37.3841 31.8271 38.0715 31.1483 37.9903 30.6093Z" fill="black"/>
<path d="M20.0164 31.2498C18.981 31.7801 19.3003 34.4182 20.8351 33.7084C21.7159 33.301 21.926 32.2318 21.1317 31.6372C20.9008 31.4644 20.318 31.0952 20.0164 31.2498Z" fill="black"/>
<path d="M12.7059 35.0069H12.6462C12.3401 34.2953 11.9278 33.5099 11.2705 33.043C10.7085 32.6439 10.3549 33.4453 10.4664 33.9075C10.6419 34.6354 11.1754 34.3013 11.5984 34.6368C12.1059 35.0393 12.3576 36.0833 12.4071 36.6849C13.0103 36.3536 13.1359 35.2078 13.1788 34.6019C13.195 34.3733 13.1122 33.8104 13.3892 33.6907C13.6761 33.5667 13.9161 34.0459 14.1938 34.0444C14.4345 34.0431 14.444 33.7253 14.4366 33.5604C14.4042 32.8446 13.5478 32.4539 13.0429 33.0503C12.588 33.5877 12.7059 34.3634 12.7059 35.0069Z" fill="black"/>
<path d="M5.0549 33.5025C4.48956 34.0617 3.92601 35.141 4.55029 35.8686C5.16805 36.5886 5.52335 35.4061 5.53309 34.9491H5.47332C4.83708 36.0136 4.67175 34.5798 4.90266 34.0233C4.97576 33.8471 5.08754 33.6923 5.0549 33.5025Z" fill="black"/>
<path d="M33.6866 38.3629C32.9762 39.0506 32.3877 39.883 32.5015 40.9089C32.5508 41.3533 33.055 42.4515 33.6803 42.0312C34.1528 41.7137 34.2231 40.9486 34.2246 40.446H34.1648L33.9638 40.7935C33.6512 41.2402 33.3228 41.2361 33.1893 40.6775C33.076 40.203 33.1552 39.6799 33.3319 39.2309C33.438 38.9611 33.7357 38.6537 33.6866 38.3629Z" fill="black"/>
<path d="M29.6817 41.6033C29.0247 40.9686 28.931 39.9424 28.0678 39.4198C27.3458 38.9826 27.0871 40.2273 27.3559 40.6772C27.651 41.1711 28.101 40.8943 28.4629 41.1752C29.0749 41.6502 29.2439 42.7612 29.3829 43.4549C29.9003 42.8784 30.1224 42.0052 30.1576 41.2561C30.1691 41.011 30.1083 40.3013 30.3652 40.1644C30.7366 39.9663 30.9915 40.6944 31.3418 40.5515C31.612 40.4413 31.554 39.9589 31.4767 39.7517C31.2026 39.0166 30.4097 38.9632 29.9596 39.5783C29.5935 40.0786 29.5053 41.0255 29.6817 41.6033Z" fill="black"/>
<path d="M12.5864 39.7516C12.0179 40.314 11.3318 41.6005 12.1807 42.2598C12.8104 42.7488 13.0046 41.637 13.0048 41.2561H12.945C12.8296 41.4903 12.7041 41.652 12.4668 41.7768C12.2906 41.3581 12.2003 41.0116 12.3183 40.5617C12.3881 40.2956 12.6335 40.0255 12.5864 39.7516Z" fill="black"/>
<path d="M24.3619 40.2146C23.6236 40.9292 23.0576 41.7579 23.1768 42.8184C23.2248 43.2465 23.7633 44.3467 24.3508 43.8919C24.8195 43.5289 24.8761 42.8308 24.8998 42.2976H24.84L24.639 42.6451C24.3058 43.1214 23.9981 43.1075 23.854 42.5291C23.7419 42.0788 23.7973 41.5708 23.9712 41.1404C24.0839 40.8611 24.4069 40.5137 24.3619 40.2146Z" fill="black"/>
</svg>
