<svg width="23" height="28" viewBox="0 0 23 28" fill="none" xmlns="http://www.w3.org/2000/svg">
<g clip-path="url(#clip0_226_22)">
<path d="M0.958334 15.1667H22.0417C22.5709 15.1667 23 14.6443 23 14C23 13.3557 22.5709 12.8333 22.0417 12.8333H0.958334C0.42906 12.8333 0 13.3557 0 14C0 14.6443 0.42906 15.1667 0.958334 15.1667Z" fill="white"/>
<path d="M0.958334 23.3333H22.0417C22.5709 23.3333 23 22.811 23 22.1667C23 21.5223 22.5709 21 22.0417 21H0.958334C0.42906 21 0 21.5223 0 22.1667C0 22.811 0.42906 23.3333 0.958334 23.3333Z" fill="white"/>
<path d="M0.958334 7H22.0417C22.5709 7 23 6.47767 23 5.83333C23 5.189 22.5709 4.66667 22.0417 4.66667H0.958334C0.42906 4.66667 0 5.189 0 5.83333C0 6.47767 0.42906 7 0.958334 7Z" fill="white"/>
</g>
<defs>
<clipPath id="clip0_226_22">
<rect width="23" height="28" fill="white" transform="matrix(-1 0 0 -1 23 28)"/>
</clipPath>
</defs>
</svg>
