<svg width="23" height="28" viewBox="0 0 23 28" fill="none" xmlns="http://www.w3.org/2000/svg">
<g clip-path="url(#clip0_226_21)">
<path d="M0.958349 15.1667H22.0417C22.571 15.1667 23 14.6443 23 14C23 13.3557 22.571 12.8333 22.0417 12.8333H0.958349C0.429075 12.8333 1.52588e-05 13.3557 1.52588e-05 14C1.52588e-05 14.6443 0.429075 15.1667 0.958349 15.1667Z" fill="black"/>
<path d="M0.958349 23.3333H22.0417C22.571 23.3333 23 22.811 23 22.1667C23 21.5223 22.571 21 22.0417 21H0.958349C0.429075 21 1.52588e-05 21.5223 1.52588e-05 22.1667C1.52588e-05 22.811 0.429075 23.3333 0.958349 23.3333Z" fill="black"/>
<path d="M0.958349 7H22.0417C22.571 7 23 6.47767 23 5.83333C23 5.189 22.571 4.66667 22.0417 4.66667H0.958349C0.429075 4.66667 1.52588e-05 5.189 1.52588e-05 5.83333C1.52588e-05 6.47767 0.429075 7 0.958349 7Z" fill="black"/>
</g>
<defs>
<clipPath id="clip0_226_21">
<rect width="23" height="28" fill="white" transform="matrix(-1 0 0 -1 23 28)"/>
</clipPath>
</defs>
</svg>
