<svg width="16" height="16" viewBox="0 0 16 16" fill="none" xmlns="http://www.w3.org/2000/svg">
<g clip-path="url(#clip0_405_8)">
<path d="M15.514 6.27923C14.9122 5.29372 14.153 4.4134 13.2667 3.67323L15.1333 1.80657C15.2548 1.68083 15.322 1.51243 15.3205 1.33763C15.3189 1.16283 15.2488 0.995625 15.1252 0.87202C15.0016 0.748415 14.8344 0.678302 14.6596 0.676783C14.4848 0.675264 14.3164 0.74246 14.1907 0.863899L12.1607 2.89657C10.9023 2.14911 9.46359 1.75954 7.99997 1.7699C3.87264 1.7699 1.52064 4.59523 0.485973 6.27923C0.166325 6.79624 -0.00299072 7.39206 -0.00299072 7.9999C-0.00299072 8.60774 0.166325 9.20356 0.485973 9.72057C1.08781 10.7061 1.84697 11.5864 2.73331 12.3266L0.866639 14.1932C0.802966 14.2547 0.752178 14.3283 0.717238 14.4096C0.682299 14.491 0.663908 14.5784 0.663139 14.667C0.66237 14.7555 0.679238 14.8433 0.712758 14.9252C0.746279 15.0071 0.795782 15.0816 0.858377 15.1442C0.920972 15.2068 0.995407 15.2563 1.07734 15.2898C1.15927 15.3233 1.24705 15.3402 1.33557 15.3394C1.42409 15.3386 1.51157 15.3202 1.59291 15.2853C1.67425 15.2504 1.74781 15.1996 1.80931 15.1359L3.84397 13.1012C5.10082 13.8486 6.53775 14.2388 7.99997 14.2299C12.1273 14.2299 14.4793 11.4046 15.514 9.72057C15.8337 9.20356 16.003 8.60774 16.003 7.9999C16.003 7.39206 15.8337 6.79624 15.514 6.27923ZM1.62197 9.02257C1.43206 8.71526 1.33147 8.36115 1.33147 7.9999C1.33147 7.63865 1.43206 7.28454 1.62197 6.97723C2.51131 5.53323 4.52131 3.10323 7.99997 3.10323C9.10682 3.09703 10.1982 3.36379 11.1773 3.8799L9.83531 5.2219C9.19526 4.79697 8.42791 4.60656 7.66346 4.683C6.89901 4.75943 6.18455 5.09799 5.64131 5.64123C5.09807 6.18448 4.7595 6.89894 4.68307 7.66339C4.60664 8.42784 4.79704 9.19519 5.22197 9.83523L3.68197 11.3752C2.86538 10.715 2.16853 9.9192 1.62197 9.02257ZM9.99997 7.9999C9.99997 8.53033 9.78926 9.03904 9.41419 9.41411C9.03912 9.78919 8.53041 9.9999 7.99997 9.9999C7.70298 9.99875 7.41011 9.93037 7.14331 9.7999L9.79997 7.14323C9.93045 7.41003 9.99882 7.70291 9.99997 7.9999ZM5.99997 7.9999C5.99997 7.46947 6.21069 6.96076 6.58576 6.58569C6.96083 6.21061 7.46954 5.9999 7.99997 5.9999C8.29697 6.00105 8.58984 6.06943 8.85664 6.1999L6.19997 8.85657C6.0695 8.58977 6.00112 8.29689 5.99997 7.9999ZM14.378 9.02257C13.4887 10.4666 11.4787 12.8966 7.99997 12.8966C6.89313 12.9028 5.80182 12.636 4.82264 12.1199L6.16464 10.7779C6.80469 11.2028 7.57204 11.3932 8.33649 11.3168C9.10094 11.2404 9.8154 10.9018 10.3587 10.3586C10.9019 9.81532 11.2405 9.10086 11.3169 8.33641C11.3933 7.57196 11.2029 6.80461 10.778 6.16457L12.318 4.62457C13.1346 5.28475 13.8314 6.0806 14.378 6.97723C14.5679 7.28454 14.6685 7.63865 14.6685 7.9999C14.6685 8.36115 14.5679 8.71526 14.378 9.02257Z" fill="#717171"/>
</g>
<defs>
<clipPath id="clip0_405_8">
<rect width="16" height="16" fill="white"/>
</clipPath>
</defs>
</svg>
