<svg width="16" height="14" viewBox="0 0 16 14" fill="none" xmlns="http://www.w3.org/2000/svg">
<path d="M15.514 5.27935C14.48 3.59535 12.128 0.77002 7.99997 0.77002C3.87197 0.77002 1.51997 3.59535 0.485973 5.27935C0.166325 5.79636 -0.00299072 6.39218 -0.00299072 7.00002C-0.00299072 7.60786 0.166325 8.20368 0.485973 8.72069C1.51997 10.4047 3.87197 13.23 7.99997 13.23C12.128 13.23 14.48 10.4047 15.514 8.72069C15.8337 8.20368 16.003 7.60786 16.003 7.00002C16.003 6.39218 15.8337 5.79636 15.514 5.27935ZM14.3773 8.02269C13.4893 9.46669 11.4793 11.8967 7.99997 11.8967C4.52064 11.8967 2.51064 9.46669 1.62264 8.02269C1.43273 7.71538 1.33214 7.36127 1.33214 7.00002C1.33214 6.63877 1.43273 6.28466 1.62264 5.97735C2.51064 4.53335 4.52064 2.10335 7.99997 2.10335C11.4793 2.10335 13.4893 4.53069 14.3773 5.97735C14.5672 6.28466 14.6678 6.63877 14.6678 7.00002C14.6678 7.36127 14.5672 7.71538 14.3773 8.02269Z" fill="#717171"/>
</svg>
