<svg width="16" height="14" viewBox="0 0 16 14" fill="none" xmlns="http://www.w3.org/2000/svg">
<g clip-path="url(#clip0_405_16)">
<path d="M15.514 5.27935C14.48 3.59535 12.128 0.77002 7.99997 0.77002C3.87197 0.77002 1.51997 3.59535 0.485973 5.27935C0.166325 5.79636 -0.00299072 6.39218 -0.00299072 7.00002C-0.00299072 7.60786 0.166325 8.20368 0.485973 8.72069C1.51997 10.4047 3.87197 13.23 7.99997 13.23C12.128 13.23 14.48 10.4047 15.514 8.72069C15.8337 8.20368 16.003 7.60786 16.003 7.00002C16.003 6.39218 15.8337 5.79636 15.514 5.27935ZM14.3773 8.02269C13.4893 9.46669 11.4793 11.8967 7.99997 11.8967C4.52064 11.8967 2.51064 9.46669 1.62264 8.02269C1.43273 7.71538 1.33214 7.36127 1.33214 7.00002C1.33214 6.63877 1.43273 6.28466 1.62264 5.97735C2.51064 4.53335 4.52064 2.10335 7.99997 2.10335C11.4793 2.10335 13.4893 4.53069 14.3773 5.97735C14.5672 6.28466 14.6678 6.63877 14.6678 7.00002C14.6678 7.36127 14.5672 7.71538 14.3773 8.02269Z" fill="#717171"/>
<path d="M8.00002 3.66675C7.34075 3.66675 6.69628 3.86224 6.14812 4.22852C5.59996 4.59479 5.17272 5.11538 4.92042 5.72447C4.66813 6.33356 4.60212 7.00378 4.73074 7.65038C4.85935 8.29699 5.17682 8.89093 5.643 9.3571C6.10917 9.82328 6.70312 10.1407 7.34972 10.2694C7.99632 10.398 8.66655 10.332 9.27563 10.0797C9.88472 9.82739 10.4053 9.40015 10.7716 8.85198C11.1378 8.30382 11.3333 7.65935 11.3333 7.00008C11.3323 6.11635 10.9807 5.26912 10.3558 4.64423C9.73098 4.01934 8.88375 3.66781 8.00002 3.66675ZM8.00002 9.00008C7.60446 9.00008 7.21778 8.88278 6.88888 8.66302C6.55998 8.44326 6.30364 8.1309 6.15226 7.76545C6.00089 7.4 5.96128 6.99786 6.03845 6.6099C6.11562 6.22194 6.3061 5.86557 6.58581 5.58587C6.86551 5.30616 7.22188 5.11568 7.60984 5.03851C7.9978 4.96134 8.39994 5.00095 8.76539 5.15232C9.13084 5.3037 9.4432 5.56004 9.66296 5.88894C9.88272 6.21784 10 6.60452 10 7.00008C10 7.53051 9.78931 8.03922 9.41424 8.4143C9.03916 8.78937 8.53045 9.00008 8.00002 9.00008Z" fill="#717171"/>
</g>
<defs>
<clipPath id="clip0_405_16">
<rect width="16" height="14" fill="white"/>
</clipPath>
</defs>
</svg>
